STARTFONT 2.1
FONT -Monotype-Century Schoolbook-Bold-I-Normal--14-140-75-75-P-80-iso8859-9
SIZE 14 75 75
FONTBOUNDINGBOX 19 18 -3 -3

STARTPROPERTIES 24
FOUNDRY "Monotype"
FAMILY_NAME "Century Schoolbook"
WEIGHT_NAME "Bold"
SLANT "I"
SETWIDTH_NAME "Normal"
ADD_STYLE_NAME ""
PIXEL_SIZE 14
POINT_SIZE 140
RESOLUTION_X 75
RESOLUTION_Y 75
SPACING "P"
AVERAGE_WIDTH 80
CHARSET_REGISTRY "iso8859"
CHARSET_ENCODING "9"
FACE_NAME "Century Schoolbook Bold Italic ISO Latin5"
_DEC_DEVICE_FONTNAMES "PS=centuryschoolbook-bit-lat5"
COPYRIGHT "Copyright (c) 1994 Monotype Typography Ltd."
CAP_HEIGHT 13
X_HEIGHT 9
WEIGHT 10
QUAD_WIDTH 9
DEFAULT_CHAR 160
FONT_DESCENT 4
FONT_ASCENT 15
ENDPROPERTIES

CHARS 191

STARTCHAR space
ENCODING 32
SWIDTH 287 0
DWIDTH 4 0
BBX 0 0 0 0
BITMAP
ENDCHAR

STARTCHAR exclam
ENCODING 33
SWIDTH 333 0
DWIDTH 5 0
BBX 4 11 1 0
BITMAP
30
30
20
60
60
40
40
00
00
C0
C0
ENDCHAR

STARTCHAR quotedbl
ENCODING 34
SWIDTH 400 0
DWIDTH 6 0
BBX 5 4 2 7
BITMAP
D8
D8
D8
90
ENDCHAR

STARTCHAR numbersign
ENCODING 35
SWIDTH 606 0
DWIDTH 9 0
BBX 8 11 1 0
BITMAP
12
12
12
7F
24
24
24
FE
48
48
48
ENDCHAR

STARTCHAR dollar
ENCODING 36
SWIDTH 574 0
DWIDTH 9 0
BBX 8 14 1 -2
BITMAP
04
0E
11
33
33
38
1C
0E
C6
C6
8C
78
20
20
ENDCHAR

STARTCHAR percent
ENCODING 37
SWIDTH 889 0
DWIDTH 13 0
BBX 10 11 2 0
BITMAP
2080
7100
9200
9200
E400
4880
09C0
1240
2240
2380
4100
ENDCHAR

STARTCHAR ampersand
ENCODING 38
SWIDTH 889 0
DWIDTH 13 0
BBX 12 11 1 0
BITMAP
0700
0D80
1980
1900
1E00
3DF0
6C40
CC80
C780
E710
7BE0
ENDCHAR

STARTCHAR quoteright
ENCODING 39
SWIDTH 259 0
DWIDTH 4 0
BBX 4 5 1 6
BITMAP
20
70
30
60
80
ENDCHAR

STARTCHAR parenleft
ENCODING 40
SWIDTH 407 0
DWIDTH 6 0
BBX 5 14 1 -3
BITMAP
08
10
20
60
60
C0
C0
C0
C0
C0
C0
C0
40
20
ENDCHAR

STARTCHAR parenright
ENCODING 41
SWIDTH 407 0
DWIDTH 6 0
BBX 5 14 0 -3
BITMAP
20
10
18
18
18
18
18
18
18
30
30
20
40
80
ENDCHAR

STARTCHAR asterisk
ENCODING 42
SWIDTH 500 0
DWIDTH 8 0
BBX 8 7 1 4
BITMAP
08
18
DB
7E
18
3C
66
ENDCHAR

STARTCHAR plus
ENCODING 43
SWIDTH 606 0
DWIDTH 9 0
BBX 9 9 1 0
BITMAP
0800
0800
0800
0800
FF80
0800
0800
0800
0800
ENDCHAR

STARTCHAR comma
ENCODING 44
SWIDTH 287 0
DWIDTH 4 0
BBX 4 5 -1 -2
BITMAP
20
70
30
60
80
ENDCHAR

STARTCHAR minus
ENCODING 45
SWIDTH 606 0
DWIDTH 9 0
BBX 8 1 1 4
BITMAP
FF
ENDCHAR

STARTCHAR period
ENCODING 46
SWIDTH 287 0
DWIDTH 4 0
BBX 2 2 1 0
BITMAP
C0
C0
ENDCHAR

STARTCHAR slash
ENCODING 47
SWIDTH 278 0
DWIDTH 4 0
BBX 7 11 -1 0
BITMAP
02
06
04
0C
18
10
30
60
40
C0
80
ENDCHAR

STARTCHAR zero
ENCODING 48
SWIDTH 574 0
DWIDTH 9 0
BBX 8 11 1 0
BITMAP
0E
13
33
63
63
E7
C6
C6
CC
C8
70
ENDCHAR

STARTCHAR one
ENCODING 49
SWIDTH 574 0
DWIDTH 9 0
BBX 6 11 1 0
BITMAP
04
3C
0C
0C
18
18
18
18
30
30
FC
ENDCHAR

STARTCHAR two
ENCODING 50
SWIDTH 574 0
DWIDTH 9 0
BBX 8 11 1 0
BITMAP
1E
23
33
13
06
04
08
10
22
7C
FC
ENDCHAR

STARTCHAR three
ENCODING 51
SWIDTH 574 0
DWIDTH 9 0
BBX 8 11 1 0
BITMAP
1E
23
33
13
06
38
04
46
C6
8C
78
ENDCHAR

STARTCHAR four
ENCODING 52
SWIDTH 574 0
DWIDTH 9 0
BBX 8 11 1 0
BITMAP
03
07
0E
16
26
4C
8C
FE
18
18
3C
ENDCHAR

STARTCHAR five
ENCODING 53
SWIDTH 574 0
DWIDTH 9 0
BBX 8 11 1 0
BITMAP
1F
1E
20
20
7C
46
06
46
C6
8C
78
ENDCHAR

STARTCHAR six
ENCODING 54
SWIDTH 574 0
DWIDTH 9 0
BBX 8 11 1 0
BITMAP
0E
13
32
60
7C
E6
C6
C6
C6
4C
38
ENDCHAR

STARTCHAR seven
ENCODING 55
SWIDTH 574 0
DWIDTH 9 0
BBX 8 11 2 0
BITMAP
3F
7F
81
02
04
08
18
30
30
60
60
ENDCHAR

STARTCHAR eight
ENCODING 56
SWIDTH 574 0
DWIDTH 9 0
BBX 8 11 1 0
BITMAP
1E
33
33
33
1A
3C
4E
C6
C6
C4
78
ENDCHAR

STARTCHAR nine
ENCODING 57
SWIDTH 574 0
DWIDTH 9 0
BBX 8 11 1 0
BITMAP
1C
32
63
63
63
67
3E
06
4C
C8
70
ENDCHAR

STARTCHAR colon
ENCODING 58
SWIDTH 287 0
DWIDTH 4 0
BBX 4 7 0 0
BITMAP
20
70
20
00
40
E0
40
ENDCHAR

STARTCHAR semicolon
ENCODING 59
SWIDTH 287 0
DWIDTH 4 0
BBX 5 10 -1 -3
BITMAP
10
38
10
00
00
20
70
30
60
80
ENDCHAR

STARTCHAR less
ENCODING 60
SWIDTH 606 0
DWIDTH 9 0
BBX 8 7 1 1
BITMAP
01
07
3C
E0
3C
07
01
ENDCHAR

STARTCHAR equal
ENCODING 61
SWIDTH 606 0
DWIDTH 9 0
BBX 8 5 1 2
BITMAP
FF
00
00
00
FF
ENDCHAR

STARTCHAR greater
ENCODING 62
SWIDTH 606 0
DWIDTH 9 0
BBX 8 7 1 1
BITMAP
80
E0
3C
07
3C
E0
80
ENDCHAR

STARTCHAR question
ENCODING 63
SWIDTH 481 0
DWIDTH 7 0
BBX 7 11 1 0
BITMAP
1C
26
46
1C
38
60
48
30
40
E0
40
ENDCHAR

STARTCHAR at
ENCODING 64
SWIDTH 747 0
DWIDTH 11 0
BBX 11 12 0 -1
BITMAP
0F00
30C0
4040
47A0
9B20
9320
B320
BEC0
5320
4020
30C0
0F00
ENDCHAR

STARTCHAR A
ENCODING 65
SWIDTH 741 0
DWIDTH 11 0
BBX 10 11 0 0
BITMAP
0180
0380
0380
0580
0980
0980
1180
3F80
2180
4180
E3C0
ENDCHAR

STARTCHAR B
ENCODING 66
SWIDTH 759 0
DWIDTH 11 0
BBX 11 11 1 0
BITMAP
3FC0
18E0
1860
1860
30C0
3F00
3180
60C0
60C0
6180
FF00
ENDCHAR

STARTCHAR C
ENCODING 67
SWIDTH 759 0
DWIDTH 11 0
BBX 10 11 1 0
BITMAP
0F40
38C0
6040
6040
C000
C000
C000
C000
C080
6300
3C00
ENDCHAR

STARTCHAR D
ENCODING 68
SWIDTH 833 0
DWIDTH 12 0
BBX 11 11 1 0
BITMAP
3F80
18C0
1860
1860
3060
3060
3060
60C0
60C0
6180
FE00
ENDCHAR

STARTCHAR E
ENCODING 69
SWIDTH 741 0
DWIDTH 12 0
BBX 11 11 1 0
BITMAP
3FE0
1860
1820
1920
3100
3F00
3200
6240
6040
60C0
FF80
ENDCHAR

STARTCHAR F
ENCODING 70
SWIDTH 704 0
DWIDTH 11 0
BBX 11 11 1 0
BITMAP
3FE0
1860
1820
1920
3100
3F00
3200
6200
6000
6000
F000
ENDCHAR

STARTCHAR G
ENCODING 71
SWIDTH 815 0
DWIDTH 12 0
BBX 11 11 1 0
BITMAP
0F40
38C0
6040
6040
C000
C000
C3E0
C180
C180
6380
3C80
ENDCHAR

STARTCHAR H
ENCODING 72
SWIDTH 870 0
DWIDTH 13 0
BBX 12 11 1 0
BITMAP
3CF0
1860
1860
1860
30C0
3FC0
30C0
6180
6180
6180
F3C0
ENDCHAR

STARTCHAR I
ENCODING 73
SWIDTH 444 0
DWIDTH 7 0
BBX 6 11 1 0
BITMAP
3C
18
18
18
30
30
30
60
60
60
F0
ENDCHAR

STARTCHAR J
ENCODING 74
SWIDTH 667 0
DWIDTH 10 0
BBX 9 11 1 0
BITMAP
0780
0300
0300
0300
0600
0600
4600
EC00
CC00
9800
7000
ENDCHAR

STARTCHAR K
ENCODING 75
SWIDTH 778 0
DWIDTH 12 0
BBX 12 11 1 0
BITMAP
3CF0
1860
18C0
1980
3300
3600
3F00
7300
6180
61C0
F3E0
ENDCHAR

STARTCHAR L
ENCODING 76
SWIDTH 704 0
DWIDTH 11 0
BBX 9 11 1 0
BITMAP
3C00
1800
1800
1800
3000
3000
3000
6080
6080
6180
FF00
ENDCHAR

STARTCHAR M
ENCODING 77
SWIDTH 944 0
DWIDTH 14 0
BBX 14 11 1 0
BITMAP
3C3C
1C38
1C58
1C58
2CB0
2D30
2D30
4E60
4C60
4C60
E8F0
ENDCHAR

STARTCHAR N
ENCODING 78
SWIDTH 852 0
DWIDTH 13 0
BBX 12 11 1 0
BITMAP
3870
1820
1820
1C20
2C40
2640
2640
4340
4380
4180
E180
ENDCHAR

STARTCHAR O
ENCODING 79
SWIDTH 833 0
DWIDTH 12 0
BBX 11 11 1 0
BITMAP
0F80
30C0
6060
6060
C060
C060
C060
C0C0
C0C0
6180
3E00
ENDCHAR

STARTCHAR P
ENCODING 80
SWIDTH 741 0
DWIDTH 11 0
BBX 11 11 1 0
BITMAP
3F80
18C0
1860
1860
30C0
3F80
3000
6000
6000
6000
F000
ENDCHAR

STARTCHAR Q
ENCODING 81
SWIDTH 833 0
DWIDTH 12 0
BBX 11 14 1 -3
BITMAP
0F80
30C0
6060
6060
C060
C060
C060
DCC0
E2C0
6380
3E00
0600
0640
0380
ENDCHAR

STARTCHAR R
ENCODING 82
SWIDTH 796 0
DWIDTH 12 0
BBX 11 11 1 0
BITMAP
3F80
18C0
1860
1860
30C0
3F00
3180
6180
6180
61A0
F0C0
ENDCHAR

STARTCHAR S
ENCODING 83
SWIDTH 685 0
DWIDTH 10 0
BBX 10 11 1 0
BITMAP
0F40
11C0
3080
3080
3C00
1F00
0780
4180
4180
E100
BE00
ENDCHAR

STARTCHAR T
ENCODING 84
SWIDTH 722 0
DWIDTH 11 0
BBX 11 11 1 0
BITMAP
3FE0
6660
4640
8640
0C00
0C00
0C00
1800
1800
1800
3C00
ENDCHAR

STARTCHAR U
ENCODING 85
SWIDTH 833 0
DWIDTH 12 0
BBX 11 11 2 0
BITMAP
78E0
3040
3040
3040
6080
6080
6080
C100
C100
C200
7C00
ENDCHAR

STARTCHAR V
ENCODING 86
SWIDTH 741 0
DWIDTH 10 0
BBX 9 11 2 0
BITMAP
F380
6100
6200
6400
6400
6800
7000
7000
6000
6000
4000
ENDCHAR

STARTCHAR W
ENCODING 87
SWIDTH 944 0
DWIDTH 14 0
BBX 14 11 2 0
BITMAP
F7DC
6388
6390
6590
65A0
69A0
71C0
71C0
6180
6100
4100
ENDCHAR

STARTCHAR X
ENCODING 88
SWIDTH 741 0
DWIDTH 11 0
BBX 11 11 1 0
BITMAP
79E0
30C0
1880
1900
0E00
0C00
0E00
1600
2300
6300
F780
ENDCHAR

STARTCHAR Y
ENCODING 89
SWIDTH 704 0
DWIDTH 11 0
BBX 10 11 2 0
BITMAP
F3C0
6180
3100
3200
1C00
1C00
1800
1800
3000
3000
7800
ENDCHAR

STARTCHAR Z
ENCODING 90
SWIDTH 704 0
DWIDTH 11 0
BBX 10 11 1 0
BITMAP
3FC0
30C0
6180
4300
0600
0C00
1800
3080
6180
C300
FF00
ENDCHAR

STARTCHAR bracketleft
ENCODING 91
SWIDTH 407 0
DWIDTH 6 0
BBX 7 14 0 -3
BITMAP
1E
18
18
30
30
30
30
60
60
60
C0
C0
C0
F0
ENDCHAR

STARTCHAR backslash
ENCODING 92
SWIDTH 606 0
DWIDTH 9 0
BBX 6 11 2 0
BITMAP
80
C0
40
60
20
30
10
18
08
0C
04
ENDCHAR

STARTCHAR bracketright
ENCODING 93
SWIDTH 407 0
DWIDTH 6 0
BBX 7 14 -1 -3
BITMAP
1E
06
06
06
0C
0C
0C
18
18
18
18
30
30
F0
ENDCHAR

STARTCHAR asciicircum
ENCODING 94
SWIDTH 606 0
DWIDTH 9 0
BBX 7 6 2 5
BITMAP
10
10
38
28
6C
C6
ENDCHAR

STARTCHAR underscore
ENCODING 95
SWIDTH 500 0
DWIDTH 8 0
BBX 8 1 0 -2
BITMAP
FF
ENDCHAR

STARTCHAR quoteleft
ENCODING 96
SWIDTH 259 0
DWIDTH 4 0
BBX 4 5 1 6
BITMAP
10
60
C0
E0
40
ENDCHAR

STARTCHAR a
ENCODING 97
SWIDTH 667 0
DWIDTH 10 0
BBX 9 7 1 0
BITMAP
3B00
6F00
C300
C600
C600
CE80
7300
ENDCHAR

STARTCHAR b
ENCODING 98
SWIDTH 611 0
DWIDTH 9 0
BBX 7 11 1 0
BITMAP
70
30
30
60
6C
76
66
C6
CC
CC
70
ENDCHAR

STARTCHAR c
ENCODING 99
SWIDTH 537 0
DWIDTH 8 0
BBX 7 7 1 0
BITMAP
3C
66
C6
C0
C0
C4
78
ENDCHAR

STARTCHAR d
ENCODING 100
SWIDTH 667 0
DWIDTH 10 0
BBX 9 11 1 0
BITMAP
0380
0180
0180
0300
3B00
6700
C300
C600
C600
CE80
7700
ENDCHAR

STARTCHAR e
ENCODING 101
SWIDTH 519 0
DWIDTH 8 0
BBX 7 7 1 0
BITMAP
3C
66
66
FC
C0
C4
78
ENDCHAR

STARTCHAR f
ENCODING 102
SWIDTH 389 0
DWIDTH 6 0
BBX 7 14 0 -3
BITMAP
06
0A
18
18
7C
30
30
30
60
60
60
60
C0
80
ENDCHAR

STARTCHAR g
ENCODING 103
SWIDTH 611 0
DWIDTH 9 0
BBX 10 11 0 -3
BITMAP
00C0
0F40
1980
3180
3100
1E00
3000
7E00
DF00
C300
7E00
ENDCHAR

STARTCHAR h
ENCODING 104
SWIDTH 685 0
DWIDTH 10 0
BBX 9 11 1 0
BITMAP
7000
3000
3000
6000
6E00
7300
6300
E600
C600
C680
C300
ENDCHAR

STARTCHAR i
ENCODING 105
SWIDTH 389 0
DWIDTH 6 0
BBX 4 11 1 0
BITMAP
30
30
00
00
E0
60
60
C0
C0
D0
60
ENDCHAR

STARTCHAR j
ENCODING 106
SWIDTH 370 0
DWIDTH 6 0
BBX 8 14 -3 -3
BITMAP
03
03
00
00
07
03
03
06
06
06
0C
4C
E8
70
ENDCHAR

STARTCHAR k
ENCODING 107
SWIDTH 648 0
DWIDTH 10 0
BBX 8 11 1 0
BITMAP
70
30
30
60
6E
73
66
F8
CC
CD
C6
ENDCHAR

STARTCHAR l
ENCODING 108
SWIDTH 389 0
DWIDTH 6 0
BBX 4 11 1 0
BITMAP
70
30
30
30
60
60
60
C0
C0
D0
60
ENDCHAR

STARTCHAR m
ENCODING 109
SWIDTH 944 0
DWIDTH 14 0
BBX 12 7 1 0
BITMAP
DDC0
6660
6660
6660
CCC0
CCD0
CC60
ENDCHAR

STARTCHAR n
ENCODING 110
SWIDTH 685 0
DWIDTH 10 0
BBX 9 7 1 0
BITMAP
EE00
7300
6300
6300
C600
C680
C300
ENDCHAR

STARTCHAR o
ENCODING 111
SWIDTH 574 0
DWIDTH 9 0
BBX 7 7 1 0
BITMAP
3C
66
C6
C6
C6
CC
78
ENDCHAR

STARTCHAR p
ENCODING 112
SWIDTH 648 0
DWIDTH 10 0
BBX 10 10 -1 -3
BITMAP
3B80
1CC0
18C0
18C0
30C0
3980
3700
6000
6000
F000
ENDCHAR

STARTCHAR q
ENCODING 113
SWIDTH 630 0
DWIDTH 9 0
BBX 8 10 1 -3
BITMAP
3D
67
C6
C6
CC
DC
6C
18
18
3C
ENDCHAR

STARTCHAR r
ENCODING 114
SWIDTH 519 0
DWIDTH 8 0
BBX 7 7 1 0
BITMAP
EC
76
64
60
C0
C0
C0
ENDCHAR

STARTCHAR s
ENCODING 115
SWIDTH 481 0
DWIDTH 7 0
BBX 7 7 0 0
BITMAP
3C
66
72
38
8C
CC
78
ENDCHAR

STARTCHAR t
ENCODING 116
SWIDTH 407 0
DWIDTH 6 0
BBX 5 10 1 0
BITMAP
10
30
30
F8
60
60
C0
C0
D0
60
ENDCHAR

STARTCHAR u
ENCODING 117
SWIDTH 685 0
DWIDTH 10 0
BBX 8 7 1 0
BITMAP
E3
63
63
C6
C6
CE
77
ENDCHAR

STARTCHAR v
ENCODING 118
SWIDTH 556 0
DWIDTH 8 0
BBX 7 7 1 0
BITMAP
E4
66
62
C2
C4
C8
70
ENDCHAR

STARTCHAR w
ENCODING 119
SWIDTH 833 0
DWIDTH 12 0
BBX 11 7 1 0
BITMAP
E640
6660
6620
CC20
CC40
DC80
7700
ENDCHAR

STARTCHAR x
ENCODING 120
SWIDTH 574 0
DWIDTH 9 0
BBX 9 7 0 0
BITMAP
3300
5D80
1800
0C00
0C00
DD00
6600
ENDCHAR

STARTCHAR y
ENCODING 121
SWIDTH 519 0
DWIDTH 8 0
BBX 9 10 -1 -3
BITMAP
3100
5980
1880
0D00
0E00
0600
0400
0400
C800
7000
ENDCHAR

STARTCHAR z
ENCODING 122
SWIDTH 519 0
DWIDTH 8 0
BBX 8 7 0 0
BITMAP
3D
5F
06
1C
60
FA
BC
ENDCHAR

STARTCHAR braceleft
ENCODING 123
SWIDTH 407 0
DWIDTH 6 0
BBX 6 14 1 -3
BITMAP
0C
18
30
30
30
60
C0
60
60
60
C0
C0
C0
60
ENDCHAR

STARTCHAR bar
ENCODING 124
SWIDTH 606 0
DWIDTH 9 0
BBX 2 14 4 -3
BITMAP
C0
C0
C0
C0
C0
C0
C0
C0
C0
C0
C0
C0
C0
C0
ENDCHAR

STARTCHAR braceright
ENCODING 125
SWIDTH 407 0
DWIDTH 6 0
BBX 6 14 -1 -3
BITMAP
18
0C
0C
0C
18
18
18
0C
18
30
30
30
60
C0
ENDCHAR

STARTCHAR asciitilde
ENCODING 126
SWIDTH 606 0
DWIDTH 9 0
BBX 8 2 1 4
BITMAP
79
9E
ENDCHAR

STARTCHAR space
ENCODING 160
SWIDTH 287 0
DWIDTH 5 0
BBX 0 0 0 0
BITMAP
ENDCHAR

STARTCHAR exclamdown
ENCODING 161
SWIDTH 333 0
DWIDTH 5 0
BBX 4 11 1 -3
BITMAP
30
30
00
00
20
20
60
60
40
C0
C0
ENDCHAR

STARTCHAR cent
ENCODING 162
SWIDTH 574 0
DWIDTH 9 0
BBX 8 15 1 -3
BITMAP
01
01
02
02
3C
66
CE
C8
D0
D0
E4
78
40
80
80
ENDCHAR

STARTCHAR sterling
ENCODING 163
SWIDTH 574 0
DWIDTH 9 0
BBX 9 11 0 0
BITMAP
0700
0980
1980
1880
1800
7E00
1800
3000
7000
9900
6E00
ENDCHAR

STARTCHAR currency
ENCODING 164
SWIDTH 574 0
DWIDTH 9 0
BBX 9 8 0 0
BITMAP
8080
7F00
6300
4100
4100
6300
7F00
8080
ENDCHAR

STARTCHAR yen
ENCODING 165
SWIDTH 574 0
DWIDTH 9 0
BBX 9 11 0 0
BITMAP
F780
6300
3200
3400
1C00
1C00
FF80
1800
FF00
3000
7800
ENDCHAR

STARTCHAR brokenbar
ENCODING 166
SWIDTH 606 0
DWIDTH 9 0
BBX 2 14 4 -3
BITMAP
C0
C0
C0
C0
C0
C0
00
00
C0
C0
C0
C0
C0
C0
ENDCHAR

STARTCHAR section
ENCODING 167
SWIDTH 500 0
DWIDTH 8 0
BBX 8 14 0 -3
BITMAP
0E
1B
1B
18
1C
2E
66
66
76
3C
1C
CC
C8
70
ENDCHAR

STARTCHAR dieresis
ENCODING 168
SWIDTH 333 0
DWIDTH 5 0
BBX 5 2 1 8
BITMAP
D8
D8
ENDCHAR

STARTCHAR copyright
ENCODING 169
SWIDTH 747 0
DWIDTH 11 0
BBX 11 11 0 0
BITMAP
1F00
2080
4E40
9120
B020
B020
B020
9120
4E40
2080
1F00
ENDCHAR

STARTCHAR ordfeminine
ENCODING 170
SWIDTH 412 0
DWIDTH 6 0
BBX 5 5 2 6
BITMAP
68
D8
90
B0
58
ENDCHAR

STARTCHAR guillemotleft
ENCODING 171
SWIDTH 481 0
DWIDTH 7 0
BBX 7 6 0 1
BITMAP
36
6C
D8
D8
48
24
ENDCHAR

STARTCHAR logicalnot
ENCODING 172
SWIDTH 606 0
DWIDTH 9 0
BBX 8 5 1 2
BITMAP
FF
01
01
01
01
ENDCHAR

STARTCHAR hyphen
ENCODING 173
SWIDTH 333 0
DWIDTH 5 0
BBX 5 1 0 3
BITMAP
F8
ENDCHAR

STARTCHAR registered
ENCODING 174
SWIDTH 747 0
DWIDTH 11 0
BBX 11 11 0 0
BITMAP
1F00
2080
5E40
9B20
9B20
9E20
9A20
9B20
5940
2080
1F00
ENDCHAR

STARTCHAR macron
ENCODING 175
SWIDTH 333 0
DWIDTH 5 0
BBX 5 1 1 8
BITMAP
F8
ENDCHAR

STARTCHAR degree
ENCODING 176
SWIDTH 400 0
DWIDTH 6 0
BBX 5 5 1 6
BITMAP
70
D8
88
D8
70
ENDCHAR

STARTCHAR plusminus
ENCODING 177
SWIDTH 606 0
DWIDTH 9 0
BBX 9 11 0 0
BITMAP
0800
0800
0800
0800
FF80
0800
0800
0800
0800
0000
FF80
ENDCHAR

STARTCHAR twosuperior
ENCODING 178
SWIDTH 344 0
DWIDTH 5 0
BBX 5 6 1 5
BITMAP
30
48
10
20
40
F0
ENDCHAR

STARTCHAR threesuperior
ENCODING 179
SWIDTH 344 0
DWIDTH 5 0
BBX 5 6 1 5
BITMAP
38
08
30
10
10
E0
ENDCHAR

STARTCHAR acute
ENCODING 180
SWIDTH 333 0
DWIDTH 5 0
BBX 3 2 2 8
BITMAP
60
C0
ENDCHAR

STARTCHAR mu
ENCODING 181
SWIDTH 685 0
DWIDTH 10 0
BBX 9 10 1 -3
BITMAP
1980
1980
1980
3300
3300
3700
7B80
4000
8000
8000
ENDCHAR

STARTCHAR paragraph
ENCODING 182
SWIDTH 650 0
DWIDTH 10 0
BBX 8 14 1 -3
BITMAP
3F
7A
FA
FA
FA
7A
3A
0A
0A
0A
0A
0A
0A
0A
ENDCHAR

STARTCHAR periodcentered
ENCODING 183
SWIDTH 287 0
DWIDTH 4 0
BBX 2 2 1 5
BITMAP
C0
C0
ENDCHAR

STARTCHAR cedilla
ENCODING 184
SWIDTH 333 0
DWIDTH 5 0
BBX 3 3 1 -3
BITMAP
40
20
C0
ENDCHAR

STARTCHAR onesuperior
ENCODING 185
SWIDTH 344 0
DWIDTH 5 0
BBX 3 6 1 5
BITMAP
20
60
20
40
40
E0
ENDCHAR

STARTCHAR ordmasculine
ENCODING 186
SWIDTH 356 0
DWIDTH 5 0
BBX 5 6 2 5
BITMAP
30
48
88
88
90
60
ENDCHAR

STARTCHAR guillemotright
ENCODING 187
SWIDTH 481 0
DWIDTH 7 0
BBX 7 6 0 1
BITMAP
48
24
36
36
6C
D8
ENDCHAR

STARTCHAR onequarter
ENCODING 188
SWIDTH 861 0
DWIDTH 13 0
BBX 10 11 2 0
BITMAP
2080
6100
2100
4200
4400
E480
0980
1280
1480
27C0
4100
ENDCHAR

STARTCHAR onehalf
ENCODING 189
SWIDTH 861 0
DWIDTH 13 0
BBX 10 11 2 0
BITMAP
2080
6100
2100
4200
4400
E580
0A40
1080
1100
2200
4780
ENDCHAR

STARTCHAR threequarters
ENCODING 190
SWIDTH 861 0
DWIDTH 13 0
BBX 12 11 1 0
BITMAP
3840
0880
3080
1100
1200
E220
0460
08A0
0920
11F0
2040
ENDCHAR

STARTCHAR questiondown
ENCODING 191
SWIDTH 481 0
DWIDTH 7 0
BBX 7 11 1 -3
BITMAP
04
0E
04
18
24
0C
38
70
C4
C8
70
ENDCHAR

STARTCHAR Agrave
ENCODING 192
SWIDTH 741 0
DWIDTH 11 0
BBX 10 14 0 0
BITMAP
0300
0180
0000
0180
0380
0380
0580
0980
0980
1180
3F80
2180
4180
E3C0
ENDCHAR

STARTCHAR Aacute
ENCODING 193
SWIDTH 741 0
DWIDTH 11 0
BBX 10 14 0 0
BITMAP
00C0
0180
0000
0180
0380
0380
0580
0980
0980
1180
3F80
2180
4180
E3C0
ENDCHAR

STARTCHAR Acircumflex
ENCODING 194
SWIDTH 741 0
DWIDTH 11 0
BBX 10 14 0 0
BITMAP
0180
0240
0000
0180
0380
0380
0580
0980
0980
1180
3F80
2180
4180
E3C0
ENDCHAR

STARTCHAR Atilde
ENCODING 195
SWIDTH 741 0
DWIDTH 11 0
BBX 11 14 0 0
BITMAP
01A0
02C0
0000
0180
0380
0380
0580
0980
0980
1180
3F80
2180
4180
E3C0
ENDCHAR

STARTCHAR Adieresis
ENCODING 196
SWIDTH 741 0
DWIDTH 11 0
BBX 11 14 0 0
BITMAP
0360
0360
0000
0180
0380
0380
0580
0980
0980
1180
3F80
2180
4180
E3C0
ENDCHAR

STARTCHAR Aring
ENCODING 197
SWIDTH 741 0
DWIDTH 11 0
BBX 10 15 0 0
BITMAP
0180
0240
0180
0000
0180
0380
0380
0580
0980
0980
1180
3F80
2180
4180
E3C0
ENDCHAR

STARTCHAR AE
ENCODING 198
SWIDTH 889 0
DWIDTH 13 0
BBX 15 11 0 0
BITMAP
07FE
03C6
02C2
04CA
0988
09F8
1190
3F14
2304
430C
E7F8
ENDCHAR

STARTCHAR Ccedilla
ENCODING 199
SWIDTH 759 0
DWIDTH 11 0
BBX 10 14 1 -3
BITMAP
0F40
38C0
6040
6040
C000
C000
C000
C000
C080
6300
3C00
0800
0400
1800
ENDCHAR

STARTCHAR Egrave
ENCODING 200
SWIDTH 741 0
DWIDTH 12 0
BBX 11 14 1 0
BITMAP
0600
0300
0000
3FE0
1860
1820
1920
3100
3F00
3200
6240
6040
60C0
FF80
ENDCHAR

STARTCHAR Eacute
ENCODING 201
SWIDTH 741 0
DWIDTH 12 0
BBX 11 14 1 0
BITMAP
0180
0300
0000
3FE0
1860
1820
1920
3100
3F00
3200
6240
6040
60C0
FF80
ENDCHAR

STARTCHAR Ecircumflex
ENCODING 202
SWIDTH 741 0
DWIDTH 12 0
BBX 11 14 1 0
BITMAP
0300
0480
0000
3FE0
1860
1820
1920
3100
3F00
3200
6240
6040
60C0
FF80
ENDCHAR

STARTCHAR Edieresis
ENCODING 203
SWIDTH 741 0
DWIDTH 12 0
BBX 11 14 1 0
BITMAP
06C0
06C0
0000
3FE0
1860
1820
1920
3100
3F00
3200
6240
6040
60C0
FF80
ENDCHAR

STARTCHAR Igrave
ENCODING 204
SWIDTH 444 0
DWIDTH 7 0
BBX 6 14 1 0
BITMAP
18
0C
00
3C
18
18
18
30
30
30
60
60
60
F0
ENDCHAR

STARTCHAR Iacute
ENCODING 205
SWIDTH 444 0
DWIDTH 7 0
BBX 7 14 1 0
BITMAP
06
0C
00
3C
18
18
18
30
30
30
60
60
60
F0
ENDCHAR

STARTCHAR Icircumflex
ENCODING 206
SWIDTH 444 0
DWIDTH 7 0
BBX 7 14 1 0
BITMAP
0C
12
00
3C
18
18
18
30
30
30
60
60
60
F0
ENDCHAR

STARTCHAR Idieresis
ENCODING 207
SWIDTH 444 0
DWIDTH 7 0
BBX 7 14 1 0
BITMAP
36
36
00
3C
18
18
18
30
30
30
60
60
60
F0
ENDCHAR

STARTCHAR Gbreve
ENCODING 208
SWIDTH 815 0
DWIDTH 12 0
BBX 11 14 1 0
BITMAP
0D80
0700
0000
0F40
38C0
6040
6040
C000
C000
C3E0
C180
C180
6380
3C80
ENDCHAR

STARTCHAR Ntilde
ENCODING 209
SWIDTH 852 0
DWIDTH 13 0
BBX 12 14 1 0
BITMAP
0340
0580
0000
3870
1820
1820
1C20
2C40
2640
2640
4340
4380
4180
E180
ENDCHAR

STARTCHAR Ograve
ENCODING 210
SWIDTH 833 0
DWIDTH 12 0
BBX 11 14 1 0
BITMAP
0C00
0600
0000
0F80
30C0
6060
6060
C060
C060
C060
C0C0
C0C0
6180
3E00
ENDCHAR

STARTCHAR Oacute
ENCODING 211
SWIDTH 833 0
DWIDTH 12 0
BBX 11 14 1 0
BITMAP
0300
0600
0000
0F80
30C0
6060
6060
C060
C060
C060
C0C0
C0C0
6180
3E00
ENDCHAR

STARTCHAR Ocircumflex
ENCODING 212
SWIDTH 833 0
DWIDTH 12 0
BBX 11 14 1 0
BITMAP
0300
0480
0000
0F80
30C0
6060
6060
C060
C060
C060
C0C0
C0C0
6180
3E00
ENDCHAR

STARTCHAR Otilde
ENCODING 213
SWIDTH 833 0
DWIDTH 12 0
BBX 11 14 1 0
BITMAP
0340
0580
0000
0F80
30C0
6060
6060
C060
C060
C060
C0C0
C0C0
6180
3E00
ENDCHAR

STARTCHAR Odieresis
ENCODING 214
SWIDTH 833 0
DWIDTH 12 0
BBX 11 14 1 0
BITMAP
0D80
0D80
0000
0F80
30C0
6060
6060
C060
C060
C060
C0C0
C0C0
6180
3E00
ENDCHAR

STARTCHAR multiply
ENCODING 215
SWIDTH 650 0
DWIDTH 10 0
BBX 7 8 1 1
BITMAP
82
C6
6C
38
38
6C
C6
82
ENDCHAR

STARTCHAR Oslash
ENCODING 216
SWIDTH 833 0
DWIDTH 12 0
BBX 11 11 1 0
BITMAP
0FA0
30C0
6160
6260
C260
C460
C860
C8C0
D0C0
6180
BE00
ENDCHAR

STARTCHAR Ugrave
ENCODING 217
SWIDTH 833 0
DWIDTH 12 0
BBX 11 14 2 0
BITMAP
0C00
0600
0000
78E0
3040
3040
3040
6080
6080
6080
C100
C100
C200
7C00
ENDCHAR

STARTCHAR Uacute
ENCODING 218
SWIDTH 833 0
DWIDTH 12 0
BBX 11 14 2 0
BITMAP
0300
0600
0000
78E0
3040
3040
3040
6080
6080
6080
C100
C100
C200
7C00
ENDCHAR

STARTCHAR Ucircumflex
ENCODING 219
SWIDTH 833 0
DWIDTH 12 0
BBX 11 14 2 0
BITMAP
0300
0480
0000
78E0
3040
3040
3040
6080
6080
6080
C100
C100
C200
7C00
ENDCHAR

STARTCHAR Udieresis
ENCODING 220
SWIDTH 833 0
DWIDTH 12 0
BBX 11 14 2 0
BITMAP
0D80
0D80
0000
78E0
3040
3040
3040
6080
6080
6080
C100
C100
C200
7C00
ENDCHAR

STARTCHAR Idotaccent
ENCODING 221
SWIDTH 444 0
DWIDTH 7 0
BBX 6 14 1 0
BITMAP
0C
0C
00
3C
18
18
18
30
30
30
60
60
60
F0
ENDCHAR

STARTCHAR Scedilla
ENCODING 222
SWIDTH 685 0
DWIDTH 10 0
BBX 10 14 1 -3
BITMAP
0F40
11C0
3080
3080
3C00
1F00
0780
4180
4180
E100
BE00
0800
0400
1800
ENDCHAR

STARTCHAR germandbls
ENCODING 223
SWIDTH 574 0
DWIDTH 9 0
BBX 10 14 -1 -3
BITMAP
0380
04C0
0CC0
0CC0
1980
1B00
1980
3180
3180
3580
6700
6000
6000
C000
ENDCHAR

STARTCHAR agrave
ENCODING 224
SWIDTH 667 0
DWIDTH 10 0
BBX 9 10 1 0
BITMAP
1800
0C00
0000
3B00
6F00
C300
C600
C600
CE80
7300
ENDCHAR

STARTCHAR aacute
ENCODING 225
SWIDTH 667 0
DWIDTH 10 0
BBX 9 10 1 0
BITMAP
0600
0C00
0000
3B00
6F00
C300
C600
C600
CE80
7300
ENDCHAR

STARTCHAR acircumflex
ENCODING 226
SWIDTH 667 0
DWIDTH 10 0
BBX 9 10 1 0
BITMAP
0C00
1200
0000
3B00
6F00
C300
C600
C600
CE80
7300
ENDCHAR

STARTCHAR atilde
ENCODING 227
SWIDTH 667 0
DWIDTH 10 0
BBX 9 10 1 0
BITMAP
0D00
1600
0000
3B00
6F00
C300
C600
C600
CE80
7300
ENDCHAR

STARTCHAR adieresis
ENCODING 228
SWIDTH 667 0
DWIDTH 10 0
BBX 9 10 1 0
BITMAP
1B00
1B00
0000
3B00
6F00
C300
C600
C600
CE80
7300
ENDCHAR

STARTCHAR aring
ENCODING 229
SWIDTH 667 0
DWIDTH 10 0
BBX 9 11 1 0
BITMAP
0C00
1200
0C00
0000
3B00
6F00
C300
C600
C600
CE80
7300
ENDCHAR

STARTCHAR ae
ENCODING 230
SWIDTH 815 0
DWIDTH 11 0
BBX 11 7 0 0
BITMAP
3BC0
6E60
C660
CFE0
CC00
CC40
7780
ENDCHAR

STARTCHAR ccedilla
ENCODING 231
SWIDTH 537 0
DWIDTH 8 0
BBX 7 10 1 -3
BITMAP
3C
66
C6
C0
C0
C4
78
20
10
60
ENDCHAR

STARTCHAR egrave
ENCODING 232
SWIDTH 519 0
DWIDTH 8 0
BBX 7 10 1 0
BITMAP
30
18
00
3C
66
66
FC
C0
C4
78
ENDCHAR

STARTCHAR eacute
ENCODING 233
SWIDTH 519 0
DWIDTH 8 0
BBX 7 10 1 0
BITMAP
0C
18
00
3C
66
66
FC
C0
C4
78
ENDCHAR

STARTCHAR ecircumflex
ENCODING 234
SWIDTH 519 0
DWIDTH 8 0
BBX 7 10 1 0
BITMAP
0C
12
00
3C
66
66
FC
C0
C4
78
ENDCHAR

STARTCHAR edieresis
ENCODING 235
SWIDTH 519 0
DWIDTH 8 0
BBX 7 10 1 0
BITMAP
36
36
00
3C
66
66
FC
C0
C4
78
ENDCHAR

STARTCHAR igrave
ENCODING 236
SWIDTH 389 0
DWIDTH 6 0
BBX 4 10 1 0
BITMAP
C0
60
00
E0
60
60
C0
C0
D0
60
ENDCHAR

STARTCHAR iacute
ENCODING 237
SWIDTH 389 0
DWIDTH 6 0
BBX 4 10 1 0
BITMAP
30
60
00
E0
60
60
C0
C0
D0
60
ENDCHAR

STARTCHAR icircumflex
ENCODING 238
SWIDTH 389 0
DWIDTH 6 0
BBX 5 10 1 0
BITMAP
30
48
00
E0
60
60
C0
C0
D0
60
ENDCHAR

STARTCHAR idieresis
ENCODING 239
SWIDTH 389 0
DWIDTH 6 0
BBX 5 10 1 0
BITMAP
D8
D8
00
E0
60
60
C0
C0
D0
60
ENDCHAR

STARTCHAR gbreve
ENCODING 240
SWIDTH 611 0
DWIDTH 9 0
BBX 10 13 0 -3
BITMAP
1B00
0E00
00C0
0F40
1980
3180
3100
1E00
3000
7E00
DF00
C300
7E00
ENDCHAR

STARTCHAR ntilde
ENCODING 241
SWIDTH 685 0
DWIDTH 10 0
BBX 9 10 1 0
BITMAP
0D00
1600
0000
EE00
7300
6300
6300
C600
C680
C300
ENDCHAR

STARTCHAR ograve
ENCODING 242
SWIDTH 574 0
DWIDTH 9 0
BBX 7 10 1 0
BITMAP
30
18
00
3C
66
C6
C6
C6
CC
78
ENDCHAR

STARTCHAR oacute
ENCODING 243
SWIDTH 574 0
DWIDTH 9 0
BBX 7 10 1 0
BITMAP
0C
18
00
3C
66
C6
C6
C6
CC
78
ENDCHAR

STARTCHAR ocircumflex
ENCODING 244
SWIDTH 574 0
DWIDTH 9 0
BBX 7 10 1 0
BITMAP
18
24
00
3C
66
C6
C6
C6
CC
78
ENDCHAR

STARTCHAR otilde
ENCODING 245
SWIDTH 574 0
DWIDTH 9 0
BBX 7 10 1 0
BITMAP
1A
2C
00
3C
66
C6
C6
C6
CC
78
ENDCHAR

STARTCHAR odieresis
ENCODING 246
SWIDTH 574 0
DWIDTH 9 0
BBX 7 10 1 0
BITMAP
36
36
00
3C
66
C6
C6
C6
CC
78
ENDCHAR

STARTCHAR divide
ENCODING 247
SWIDTH 650 0
DWIDTH 10 0
BBX 8 7 2 1
BITMAP
18
18
00
FF
00
18
18
ENDCHAR

STARTCHAR oslash
ENCODING 248
SWIDTH 574 0
DWIDTH 9 0
BBX 7 7 1 0
BITMAP
3A
66
CE
D6
E6
CC
B8
ENDCHAR

STARTCHAR ugrave
ENCODING 249
SWIDTH 685 0
DWIDTH 10 0
BBX 8 10 1 0
BITMAP
18
0C
00
E3
63
63
C6
C6
CE
77
ENDCHAR

STARTCHAR uacute
ENCODING 250
SWIDTH 685 0
DWIDTH 10 0
BBX 8 10 1 0
BITMAP
0C
18
00
E3
63
63
C6
C6
CE
77
ENDCHAR

STARTCHAR ucircumflex
ENCODING 251
SWIDTH 685 0
DWIDTH 10 0
BBX 8 10 1 0
BITMAP
0C
12
00
E3
63
63
C6
C6
CE
77
ENDCHAR

STARTCHAR udieresis
ENCODING 252
SWIDTH 685 0
DWIDTH 10 0
BBX 8 10 1 0
BITMAP
36
36
00
E3
63
63
C6
C6
CE
77
ENDCHAR

STARTCHAR dotlessi
ENCODING 253
SWIDTH 389 0
DWIDTH 6 0
BBX 4 7 1 0
BITMAP
E0
60
60
C0
C0
D0
60
ENDCHAR

STARTCHAR scedilla
ENCODING 254
SWIDTH 481 0
DWIDTH 7 0
BBX 7 10 0 -3
BITMAP
3C
66
72
38
8C
CC
78
20
10
60
ENDCHAR

STARTCHAR ydieresis
ENCODING 255
SWIDTH 519 0
DWIDTH 8 0
BBX 9 13 -1 -3
BITMAP
1B00
1B00
0000
3100
5980
1880
0D00
0E00
0600
0400
0400
C800
7000
ENDCHAR
ENDFONT
